<?xml version="1.0" encoding="UTF-8"?>
<svg id="Warstwa_2" data-name="Warstwa 2" xmlns="http://www.w3.org/2000/svg" viewBox="0 0 257 137.22">
  <defs>
    <style>
      .cls-1 {
        fill: #1d1d1b;
      }
    </style>
  </defs>
  <g id="Warstwa_1-2" data-name="Warstwa 1">
    <g>
      <path class="cls-1" d="M4.56,9.78h5.22v36.06h17.28v4.38H4.56V9.78Z"/>
      <path class="cls-1" d="M38.58,13.02c.06,1.8-1.26,3.24-3.36,3.24-1.86,0-3.18-1.44-3.18-3.24s1.38-3.3,3.3-3.3,3.24,1.44,3.24,3.3ZM32.7,50.22v-29.04h5.28v29.04h-5.28Z"/>
      <path class="cls-1" d="M53.1,12.84v8.34h7.56v4.02h-7.56v15.66c0,3.6,1.02,5.64,3.96,5.64,1.38,0,2.4-.18,3.06-.36l.24,3.96c-1.02.42-2.64.72-4.68.72-2.46,0-4.44-.78-5.7-2.22-1.5-1.56-2.04-4.14-2.04-7.56v-15.84h-4.5v-4.02h4.5v-6.96l5.16-1.38Z"/>
      <path class="cls-1" d="M72.96,12.84v8.34h7.56v4.02h-7.56v15.66c0,3.6,1.02,5.64,3.96,5.64,1.38,0,2.4-.18,3.06-.36l.24,3.96c-1.02.42-2.64.72-4.68.72-2.46,0-4.44-.78-5.7-2.22-1.5-1.56-2.04-4.14-2.04-7.56v-15.84h-4.5v-4.02h4.5v-6.96l5.16-1.38Z"/>
      <path class="cls-1" d="M86.46,7.62h5.28v42.6h-5.28V7.62Z"/>
      <path class="cls-1" d="M103.56,36.66c.12,7.14,4.68,10.08,9.96,10.08,3.78,0,6.06-.66,8.04-1.5l.9,3.78c-1.86.84-5.04,1.8-9.66,1.8-8.94,0-14.28-5.88-14.28-14.64s5.16-15.66,13.62-15.66c9.48,0,12,8.34,12,13.68,0,1.08-.12,1.92-.18,2.46h-20.4ZM119.04,32.88c.06-3.36-1.38-8.58-7.32-8.58-5.34,0-7.68,4.92-8.1,8.58h15.42Z"/>
      <path class="cls-1" d="M49.26,109.5l-4.2,12.72h-5.4l13.74-40.44h6.3l13.8,40.44h-5.58l-4.32-12.72h-14.34ZM62.52,105.42l-3.96-11.64c-.9-2.64-1.5-5.04-2.1-7.38h-.12c-.6,2.4-1.26,4.86-2.04,7.32l-3.96,11.7h12.18Z"/>
      <path class="cls-1" d="M79.08,79.62h5.28v42.6h-5.28v-42.6Z"/>
      <path class="cls-1" d="M113.94,121.14c-1.38.72-4.44,1.68-8.34,1.68-8.76,0-14.46-5.94-14.46-14.82s6.12-15.42,15.6-15.42c3.12,0,5.88.78,7.32,1.5l-1.2,4.08c-1.26-.72-3.24-1.38-6.12-1.38-6.66,0-10.26,4.92-10.26,10.98,0,6.72,4.32,10.86,10.08,10.86,3,0,4.98-.78,6.48-1.44l.9,3.96Z"/>
      <path class="cls-1" d="M120.12,79.62h5.28v18.12h.12c.84-1.5,2.16-2.82,3.78-3.72,1.56-.9,3.42-1.5,5.4-1.5,3.9,0,10.14,2.4,10.14,12.42v17.28h-5.28v-16.68c0-4.68-1.74-8.64-6.72-8.64-3.42,0-6.12,2.4-7.08,5.28-.3.72-.36,1.5-.36,2.52v17.52h-5.28v-42.6Z"/>
      <path class="cls-1" d="M156.36,108.66c.12,7.14,4.68,10.08,9.96,10.08,3.78,0,6.06-.66,8.04-1.5l.9,3.78c-1.86.84-5.04,1.8-9.66,1.8-8.94,0-14.28-5.88-14.28-14.64s5.16-15.66,13.62-15.66c9.48,0,12,8.34,12,13.68,0,1.08-.12,1.92-.18,2.46h-20.4ZM171.84,104.88c.06-3.36-1.38-8.58-7.32-8.58-5.34,0-7.68,4.92-8.1,8.58h15.42Z"/>
      <path class="cls-1" d="M183.48,101.04c0-3-.06-5.46-.24-7.86h4.62l.24,4.68h.18c1.62-2.76,4.32-5.34,9.12-5.34,3.96,0,6.96,2.4,8.22,5.82h.12c.9-1.62,2.04-2.88,3.24-3.78,1.74-1.32,3.66-2.04,6.42-2.04,3.84,0,9.54,2.52,9.54,12.6v17.1h-5.16v-16.44c0-5.58-2.04-8.94-6.3-8.94-3,0-5.34,2.22-6.24,4.8-.24.72-.42,1.68-.42,2.64v17.94h-5.16v-17.4c0-4.62-2.04-7.98-6.06-7.98-3.3,0-5.7,2.64-6.54,5.28-.3.78-.42,1.68-.42,2.58v17.52h-5.16v-21.18Z"/>
      <path class="cls-1" d="M234.66,93.18l6.36,17.16c.66,1.92,1.38,4.2,1.86,5.94h.12c.54-1.74,1.14-3.96,1.86-6.06l5.76-17.04h5.58l-7.92,20.7c-3.78,9.96-6.36,15.06-9.96,18.18-2.58,2.28-5.16,3.18-6.48,3.42l-1.32-4.44c1.32-.42,3.06-1.26,4.62-2.58,1.44-1.14,3.24-3.18,4.44-5.88.24-.54.42-.96.42-1.26s-.12-.72-.36-1.38l-10.74-26.76h5.76Z"/>
    </g>
  </g>
</svg>