<?xml version="1.0" encoding="UTF-8"?>
<svg id="Warstwa_2" data-name="Warstwa 2" xmlns="http://www.w3.org/2000/svg" viewBox="0 0 257 137.22">
  <defs>
    <style>
      .cls-1 {
        fill: #1d1d1b;
      }
    </style>
  </defs>
  <g id="Warstwa_1-2" data-name="Warstwa 1">
    <g>
      <path class="cls-1" d="M4.56,10.26c2.52-.42,5.82-.78,10.02-.78,5.16,0,8.94,1.2,11.34,3.36,2.22,1.92,3.54,4.86,3.54,8.46s-1.08,6.54-3.12,8.64c-2.76,2.94-7.26,4.44-12.36,4.44-1.56,0-3-.06-4.2-.36v16.2h-5.22V10.26ZM9.78,29.76c1.14.3,2.58.42,4.32.42,6.3,0,10.14-3.06,10.14-8.64s-3.78-7.92-9.54-7.92c-2.28,0-4.02.18-4.92.42v15.72Z"/>
      <path class="cls-1" d="M50.82,50.22l-.42-3.66h-.18c-1.62,2.28-4.74,4.32-8.88,4.32-5.88,0-8.88-4.14-8.88-8.34,0-7.02,6.24-10.86,17.46-10.8v-.6c0-2.4-.66-6.72-6.6-6.72-2.7,0-5.52.84-7.56,2.16l-1.2-3.48c2.4-1.56,5.88-2.58,9.54-2.58,8.88,0,11.04,6.06,11.04,11.88v10.86c0,2.52.12,4.98.48,6.96h-4.8ZM50.04,35.4c-5.76-.12-12.3.9-12.3,6.54,0,3.42,2.28,5.04,4.98,5.04,3.78,0,6.18-2.4,7.02-4.86.18-.54.3-1.14.3-1.68v-5.04Z"/>
      <path class="cls-1" d="M62.94,44.82c1.56,1.02,4.32,2.1,6.96,2.1,3.84,0,5.64-1.92,5.64-4.32,0-2.52-1.5-3.9-5.4-5.34-5.22-1.86-7.68-4.74-7.68-8.22,0-4.68,3.78-8.52,10.02-8.52,2.94,0,5.52.84,7.14,1.8l-1.32,3.84c-1.14-.72-3.24-1.68-5.94-1.68-3.12,0-4.86,1.8-4.86,3.96,0,2.4,1.74,3.48,5.52,4.92,5.04,1.92,7.62,4.44,7.62,8.76,0,5.1-3.96,8.7-10.86,8.7-3.18,0-6.12-.78-8.16-1.98l1.32-4.02Z"/>
      <path class="cls-1" d="M86.7,44.82c1.56,1.02,4.32,2.1,6.96,2.1,3.84,0,5.64-1.92,5.64-4.32,0-2.52-1.5-3.9-5.4-5.34-5.22-1.86-7.68-4.74-7.68-8.22,0-4.68,3.78-8.52,10.02-8.52,2.94,0,5.52.84,7.14,1.8l-1.32,3.84c-1.14-.72-3.24-1.68-5.94-1.68-3.12,0-4.86,1.8-4.86,3.96,0,2.4,1.74,3.48,5.52,4.92,5.04,1.92,7.62,4.44,7.62,8.76,0,5.1-3.96,8.7-10.86,8.7-3.18,0-6.12-.78-8.16-1.98l1.32-4.02Z"/>
      <path class="cls-1" d="M117.96,50.22l-10.26-40.44h5.52l4.8,20.46c1.2,5.04,2.28,10.08,3,13.98h.12c.66-4.02,1.92-8.82,3.3-14.04l5.4-20.4h5.46l4.92,20.52c1.14,4.8,2.22,9.6,2.82,13.86h.12c.84-4.44,1.98-8.94,3.24-13.98l5.34-20.4h5.34l-11.46,40.44h-5.46l-5.1-21.06c-1.26-5.16-2.1-9.12-2.64-13.2h-.12c-.72,4.02-1.62,7.98-3.12,13.2l-5.76,21.06h-5.46Z"/>
      <path class="cls-1" d="M186.24,35.46c0,10.74-7.44,15.42-14.46,15.42-7.86,0-13.92-5.76-13.92-14.94,0-9.72,6.36-15.42,14.4-15.42s13.98,6.06,13.98,14.94ZM163.2,35.76c0,6.36,3.66,11.16,8.82,11.16s8.82-4.74,8.82-11.28c0-4.92-2.46-11.16-8.7-11.16s-8.94,5.76-8.94,11.28Z"/>
      <path class="cls-1" d="M192.9,30.24c0-3.42-.06-6.36-.24-9.06h4.62l.18,5.7h.24c1.32-3.9,4.5-6.36,8.04-6.36.6,0,1.02.06,1.5.18v4.98c-.54-.12-1.08-.18-1.8-.18-3.72,0-6.36,2.82-7.08,6.78-.12.72-.24,1.56-.24,2.46v15.48h-5.22v-19.98Z"/>
      <path class="cls-1" d="M237,7.62v35.1c0,2.58.06,5.52.24,7.5h-4.74l-.24-5.04h-.12c-1.62,3.24-5.16,5.7-9.9,5.7-7.02,0-12.42-5.94-12.42-14.76-.06-9.66,5.94-15.6,13.02-15.6,4.44,0,7.44,2.1,8.76,4.44h.12V7.62h5.28ZM231.72,33c0-.66-.06-1.56-.24-2.22-.78-3.36-3.66-6.12-7.62-6.12-5.46,0-8.7,4.8-8.7,11.22,0,5.88,2.88,10.74,8.58,10.74,3.54,0,6.78-2.34,7.74-6.3.18-.72.24-1.44.24-2.28v-5.04Z"/>
      <path class="cls-1" d="M86.22,120.42c-2.34.84-6.96,2.22-12.42,2.22-6.12,0-11.16-1.56-15.12-5.34-3.48-3.36-5.64-8.76-5.64-15.06.06-12.06,8.34-20.88,21.9-20.88,4.68,0,8.34,1.02,10.08,1.86l-1.26,4.26c-2.16-.96-4.86-1.74-8.94-1.74-9.84,0-16.26,6.12-16.26,16.26s6.18,16.32,15.6,16.32c3.42,0,5.76-.48,6.96-1.08v-12.06h-8.22v-4.2h13.32v19.44Z"/>
      <path class="cls-1" d="M110.58,122.22l-.42-3.66h-.18c-1.62,2.28-4.74,4.32-8.88,4.32-5.88,0-8.88-4.14-8.88-8.34,0-7.02,6.24-10.86,17.46-10.8v-.6c0-2.4-.66-6.72-6.6-6.72-2.7,0-5.52.84-7.56,2.16l-1.2-3.48c2.4-1.56,5.88-2.58,9.54-2.58,8.88,0,11.04,6.06,11.04,11.88v10.86c0,2.52.12,4.98.48,6.96h-4.8ZM109.8,107.4c-5.76-.12-12.3.9-12.3,6.54,0,3.42,2.28,5.04,4.98,5.04,3.78,0,6.18-2.4,7.02-4.86.18-.54.3-1.14.3-1.68v-5.04Z"/>
      <path class="cls-1" d="M123.42,101.04c0-3-.06-5.46-.24-7.86h4.62l.24,4.68h.18c1.62-2.76,4.32-5.34,9.12-5.34,3.96,0,6.96,2.4,8.22,5.82h.12c.9-1.62,2.04-2.88,3.24-3.78,1.74-1.32,3.66-2.04,6.42-2.04,3.84,0,9.54,2.52,9.54,12.6v17.1h-5.16v-16.44c0-5.58-2.04-8.94-6.3-8.94-3,0-5.34,2.22-6.24,4.8-.24.72-.42,1.68-.42,2.64v17.94h-5.16v-17.4c0-4.62-2.04-7.98-6.06-7.98-3.3,0-5.7,2.64-6.54,5.28-.3.78-.42,1.68-.42,2.58v17.52h-5.16v-21.18Z"/>
      <path class="cls-1" d="M176.4,108.66c.12,7.14,4.68,10.08,9.96,10.08,3.78,0,6.06-.66,8.04-1.5l.9,3.78c-1.86.84-5.04,1.8-9.66,1.8-8.94,0-14.28-5.88-14.28-14.64s5.16-15.66,13.62-15.66c9.48,0,12,8.34,12,13.68,0,1.08-.12,1.92-.18,2.46h-20.4ZM191.88,104.88c.06-3.36-1.38-8.58-7.32-8.58-5.34,0-7.68,4.92-8.1,8.58h15.42Z"/>
    </g>
  </g>
</svg>