<?xml version="1.0" encoding="UTF-8"?>
<svg id="Warstwa_2" data-name="Warstwa 2" xmlns="http://www.w3.org/2000/svg" viewBox="0 0 257 137.22">
  <defs>
    <style>
      .cls-1 {
        fill: #1d1d1b;
      }
    </style>
  </defs>
  <g id="Warstwa_1-2" data-name="Warstwa 1">
    <g>
      <path class="cls-1" d="M4.56,10.26c2.52-.42,5.82-.78,10.02-.78,5.16,0,8.94,1.2,11.34,3.36,2.22,1.92,3.54,4.86,3.54,8.46s-1.08,6.54-3.12,8.64c-2.76,2.94-7.26,4.44-12.36,4.44-1.56,0-3-.06-4.2-.36v16.2h-5.22V10.26ZM9.78,29.76c1.14.3,2.58.42,4.32.42,6.3,0,10.14-3.06,10.14-8.64s-3.78-7.92-9.54-7.92c-2.28,0-4.02.18-4.92.42v15.72Z"/>
      <path class="cls-1" d="M61.08,35.46c0,10.74-7.44,15.42-14.46,15.42-7.86,0-13.92-5.76-13.92-14.94,0-9.72,6.36-15.42,14.4-15.42s13.98,6.06,13.98,14.94ZM38.04,35.76c0,6.36,3.66,11.16,8.82,11.16s8.82-4.74,8.82-11.28c0-4.92-2.46-11.16-8.7-11.16s-8.94,5.76-8.94,11.28Z"/>
      <path class="cls-1" d="M94.02,35.46c0,10.74-7.44,15.42-14.46,15.42-7.86,0-13.92-5.76-13.92-14.94,0-9.72,6.36-15.42,14.4-15.42s13.98,6.06,13.98,14.94ZM70.98,35.76c0,6.36,3.66,11.16,8.82,11.16s8.82-4.74,8.82-11.28c0-4.92-2.46-11.16-8.7-11.16s-8.94,5.76-8.94,11.28Z"/>
      <path class="cls-1" d="M100.68,30.66c0-3.72-.12-6.72-.24-9.48h4.74l.24,4.98h.12c2.16-3.54,5.58-5.64,10.32-5.64,7.02,0,12.3,5.94,12.3,14.76,0,10.44-6.36,15.6-13.2,15.6-3.84,0-7.2-1.68-8.94-4.56h-.12v15.78h-5.22v-31.44ZM105.9,38.4c0,.78.12,1.5.24,2.16.96,3.66,4.14,6.18,7.92,6.18,5.58,0,8.82-4.56,8.82-11.22,0-5.82-3.06-10.8-8.64-10.8-3.6,0-6.96,2.58-7.98,6.54-.18.66-.36,1.44-.36,2.16v4.98Z"/>
      <path class="cls-1" d="M136.32,21.18l6.36,17.16c.66,1.92,1.38,4.2,1.86,5.94h.12c.54-1.74,1.14-3.96,1.86-6.06l5.76-17.04h5.58l-7.92,20.7c-3.78,9.96-6.36,15.06-9.96,18.18-2.58,2.28-5.16,3.18-6.48,3.42l-1.32-4.44c1.32-.42,3.06-1.26,4.62-2.58,1.44-1.14,3.24-3.18,4.44-5.88.24-.54.42-.96.42-1.26s-.12-.72-.36-1.38l-10.74-26.76h5.76Z"/>
      <path class="cls-1" d="M70.98,120.9c-1.92.96-5.76,1.92-10.68,1.92-11.4,0-19.98-7.2-19.98-20.46s8.58-21.24,21.12-21.24c5.04,0,8.22,1.08,9.6,1.8l-1.26,4.26c-1.98-.96-4.8-1.68-8.16-1.68-9.48,0-15.78,6.06-15.78,16.68,0,9.9,5.7,16.26,15.54,16.26,3.18,0,6.42-.66,8.52-1.68l1.08,4.14Z"/>
      <path class="cls-1" d="M77.34,79.62h5.28v42.6h-5.28v-42.6Z"/>
      <path class="cls-1" d="M97.38,85.02c.06,1.8-1.26,3.24-3.36,3.24-1.86,0-3.18-1.44-3.18-3.24s1.38-3.3,3.3-3.3,3.24,1.44,3.24,3.3ZM91.5,122.22v-29.04h5.28v29.04h-5.28Z"/>
      <path class="cls-1" d="M126.24,121.14c-1.38.72-4.44,1.68-8.34,1.68-8.76,0-14.46-5.94-14.46-14.82s6.12-15.42,15.6-15.42c3.12,0,5.88.78,7.32,1.5l-1.2,4.08c-1.26-.72-3.24-1.38-6.12-1.38-6.66,0-10.26,4.92-10.26,10.98,0,6.72,4.32,10.86,10.08,10.86,3,0,4.98-.78,6.48-1.44l.9,3.96Z"/>
      <path class="cls-1" d="M137.64,106.5h.12c.72-1.02,1.74-2.28,2.58-3.3l8.52-10.02h6.36l-11.22,11.94,12.78,17.1h-6.42l-10.02-13.92-2.7,3v10.92h-5.22v-42.6h5.22v26.88Z"/>
      <path class="cls-1" d="M163.5,108.66c.12,7.14,4.68,10.08,9.96,10.08,3.78,0,6.06-.66,8.04-1.5l.9,3.78c-1.86.84-5.04,1.8-9.66,1.8-8.94,0-14.28-5.88-14.28-14.64s5.16-15.66,13.62-15.66c9.48,0,12,8.34,12,13.68,0,1.08-.12,1.92-.18,2.46h-20.4ZM178.97,104.88c.06-3.36-1.38-8.58-7.32-8.58-5.34,0-7.68,4.92-8.1,8.58h15.42Z"/>
      <path class="cls-1" d="M190.62,102.24c0-3.42-.06-6.36-.24-9.06h4.62l.18,5.7h.24c1.32-3.9,4.5-6.36,8.04-6.36.6,0,1.02.06,1.5.18v4.98c-.54-.12-1.08-.18-1.8-.18-3.72,0-6.36,2.82-7.08,6.78-.12.72-.24,1.56-.24,2.46v15.48h-5.22v-19.98Z"/>
    </g>
  </g>
</svg>