<?xml version="1.0" encoding="UTF-8"?>
<svg id="Warstwa_2" data-name="Warstwa 2" xmlns="http://www.w3.org/2000/svg" viewBox="0 0 256 137.22">
  <defs>
    <style>
      .cls-1 {
        fill: #1d1d1b;
      }
    </style>
  </defs>
  <g id="Warstwa_1-2" data-name="Warstwa 1">
    <g>
      <path class="cls-1" d="M50.64,56.16c-5.46-1.44-10.8-3.06-15.48-4.68-.84-.3-1.68-.6-2.46-.6-9.6-.36-17.82-7.44-17.82-20.46s7.92-21.3,18.84-21.3,18.12,8.52,18.12,20.46c0,10.38-4.8,17.04-11.52,19.38v.24c4.02,1.02,8.4,1.98,11.82,2.58l-1.5,4.38ZM46.32,29.82c0-8.1-4.2-16.44-12.78-16.44s-13.14,8.16-13.08,16.92c-.06,8.58,4.68,16.32,12.84,16.32s13.02-7.56,13.02-16.8Z"/>
      <path class="cls-1" d="M58.62,10.32c2.64-.54,6.42-.84,10.02-.84,5.58,0,9.18,1.02,11.7,3.3,2.04,1.8,3.18,4.56,3.18,7.68,0,5.34-3.36,8.88-7.62,10.32v.18c3.12,1.08,4.98,3.96,5.94,8.16,1.32,5.64,2.28,9.54,3.12,11.1h-5.4c-.66-1.14-1.56-4.62-2.7-9.66-1.2-5.58-3.36-7.68-8.1-7.86h-4.92v17.52h-5.22V10.32ZM63.84,28.74h5.34c5.58,0,9.12-3.06,9.12-7.68,0-5.22-3.78-7.5-9.3-7.56-2.52,0-4.32.24-5.16.48v14.76Z"/>
      <path class="cls-1" d="M131.88,48.9c-1.92.96-5.76,1.92-10.68,1.92-11.4,0-19.98-7.2-19.98-20.46s8.58-21.24,21.12-21.24c5.04,0,8.22,1.08,9.6,1.8l-1.26,4.26c-1.98-.96-4.8-1.68-8.16-1.68-9.48,0-15.78,6.06-15.78,16.68,0,9.9,5.7,16.26,15.54,16.26,3.18,0,6.42-.66,8.52-1.68l1.08,4.14Z"/>
      <path class="cls-1" d="M163.86,35.46c0,10.74-7.44,15.42-14.46,15.42-7.86,0-13.92-5.76-13.92-14.94,0-9.72,6.36-15.42,14.4-15.42s13.98,6.06,13.98,14.94ZM140.82,35.76c0,6.36,3.66,11.16,8.82,11.16s8.82-4.74,8.82-11.28c0-4.92-2.46-11.16-8.7-11.16s-8.94,5.76-8.94,11.28Z"/>
      <path class="cls-1" d="M195.6,7.62v35.1c0,2.58.06,5.52.24,7.5h-4.74l-.24-5.04h-.12c-1.62,3.24-5.16,5.7-9.9,5.7-7.02,0-12.42-5.94-12.42-14.76-.06-9.66,5.94-15.6,13.02-15.6,4.44,0,7.44,2.1,8.76,4.44h.12V7.62h5.28ZM190.32,33c0-.66-.06-1.56-.24-2.22-.78-3.36-3.66-6.12-7.62-6.12-5.46,0-8.7,4.8-8.7,11.22,0,5.88,2.88,10.74,8.58,10.74,3.54,0,6.78-2.34,7.74-6.3.18-.72.24-1.44.24-2.28v-5.04Z"/>
      <path class="cls-1" d="M207.3,36.66c.12,7.14,4.68,10.08,9.96,10.08,3.78,0,6.06-.66,8.04-1.5l.9,3.78c-1.86.84-5.04,1.8-9.66,1.8-8.94,0-14.28-5.88-14.28-14.64s5.16-15.66,13.62-15.66c9.48,0,12,8.34,12,13.68,0,1.08-.12,1.92-.18,2.46h-20.4ZM222.78,32.88c.06-3.36-1.38-8.58-7.32-8.58-5.34,0-7.68,4.92-8.1,8.58h15.42Z"/>
      <path class="cls-1" d="M35.34,120.42c-2.34.84-6.96,2.22-12.42,2.22-6.12,0-11.16-1.56-15.12-5.34-3.48-3.36-5.64-8.76-5.64-15.06.06-12.06,8.34-20.88,21.9-20.88,4.68,0,8.34,1.02,10.08,1.86l-1.26,4.26c-2.16-.96-4.86-1.74-8.94-1.74-9.84,0-16.26,6.12-16.26,16.26s6.18,16.32,15.6,16.32c3.42,0,5.76-.48,6.96-1.08v-12.06h-8.22v-4.2h13.32v19.44Z"/>
      <path class="cls-1" d="M46.38,108.66c.12,7.14,4.68,10.08,9.96,10.08,3.78,0,6.06-.66,8.04-1.5l.9,3.78c-1.86.84-5.04,1.8-9.66,1.8-8.94,0-14.28-5.88-14.28-14.64s5.16-15.66,13.62-15.66c9.48,0,12,8.34,12,13.68,0,1.08-.12,1.92-.18,2.46h-20.4ZM61.86,104.88c.06-3.36-1.38-8.58-7.32-8.58-5.34,0-7.68,4.92-8.1,8.58h15.42Z"/>
      <path class="cls-1" d="M73.5,101.04c0-3-.06-5.46-.24-7.86h4.68l.3,4.8h.12c1.44-2.76,4.8-5.46,9.6-5.46,4.02,0,10.26,2.4,10.26,12.36v17.34h-5.28v-16.74c0-4.68-1.74-8.58-6.72-8.58-3.48,0-6.18,2.46-7.08,5.4-.24.66-.36,1.56-.36,2.46v17.46h-5.28v-21.18Z"/>
      <path class="cls-1" d="M109.74,108.66c.12,7.14,4.68,10.08,9.96,10.08,3.78,0,6.06-.66,8.04-1.5l.9,3.78c-1.86.84-5.04,1.8-9.66,1.8-8.94,0-14.28-5.88-14.28-14.64s5.16-15.66,13.62-15.66c9.48,0,12,8.34,12,13.68,0,1.08-.12,1.92-.18,2.46h-20.4ZM125.22,104.88c.06-3.36-1.38-8.58-7.32-8.58-5.34,0-7.68,4.92-8.1,8.58h15.42Z"/>
      <path class="cls-1" d="M136.86,102.24c0-3.42-.06-6.36-.24-9.06h4.62l.18,5.7h.24c1.32-3.9,4.5-6.36,8.04-6.36.6,0,1.02.06,1.5.18v4.98c-.54-.12-1.08-.18-1.8-.18-3.72,0-6.36,2.82-7.08,6.78-.12.72-.24,1.56-.24,2.46v15.48h-5.22v-19.98Z"/>
      <path class="cls-1" d="M172.26,122.22l-.42-3.66h-.18c-1.62,2.28-4.74,4.32-8.88,4.32-5.88,0-8.88-4.14-8.88-8.34,0-7.02,6.24-10.86,17.46-10.8v-.6c0-2.4-.66-6.72-6.6-6.72-2.7,0-5.52.84-7.56,2.16l-1.2-3.48c2.4-1.56,5.88-2.58,9.54-2.58,8.88,0,11.04,6.06,11.04,11.88v10.86c0,2.52.12,4.98.48,6.96h-4.8ZM171.48,107.4c-5.76-.12-12.3.9-12.3,6.54,0,3.42,2.28,5.04,4.98,5.04,3.78,0,6.18-2.4,7.02-4.86.18-.54.3-1.14.3-1.68v-5.04Z"/>
      <path class="cls-1" d="M191.22,84.84v8.34h7.56v4.02h-7.56v15.66c0,3.6,1.02,5.64,3.96,5.64,1.38,0,2.4-.18,3.06-.36l.24,3.96c-1.02.42-2.64.72-4.68.72-2.46,0-4.44-.78-5.7-2.22-1.5-1.56-2.04-4.14-2.04-7.56v-15.84h-4.5v-4.02h4.5v-6.96l5.16-1.38Z"/>
      <path class="cls-1" d="M230.64,107.46c0,10.74-7.44,15.42-14.46,15.42-7.86,0-13.92-5.76-13.92-14.94,0-9.72,6.36-15.42,14.4-15.42s13.98,6.06,13.98,14.94ZM207.6,107.76c0,6.36,3.66,11.16,8.82,11.16s8.82-4.74,8.82-11.28c0-4.92-2.46-11.16-8.7-11.16s-8.94,5.76-8.94,11.28Z"/>
      <path class="cls-1" d="M237.3,102.24c0-3.42-.06-6.36-.24-9.06h4.62l.18,5.7h.24c1.32-3.9,4.5-6.36,8.04-6.36.6,0,1.02.06,1.5.18v4.98c-.54-.12-1.08-.18-1.8-.18-3.72,0-6.36,2.82-7.08,6.78-.12.72-.24,1.56-.24,2.46v15.48h-5.22v-19.98Z"/>
    </g>
  </g>
</svg>